<?xml version="1.0" encoding="UTF-8"?>
<svg xmlns="http://www.w3.org/2000/svg" xmlns:xlink="http://www.w3.org/1999/xlink" width="600pt" height="600pt" viewBox="0 0 600 600" version="1.1">
<g id="surface1">
<path style="fill-rule:nonzero;fill:rgb(18.039216%,20.392157%,21.176471%);fill-opacity:1;stroke-width:0.053;stroke-linecap:butt;stroke-linejoin:miter;stroke:rgb(18.039216%,20.392157%,21.176471%);stroke-opacity:1;stroke-miterlimit:4;" d="M 0 0.999995 L 0.866012 0.500015 L 0.866012 -0.500015 L 0.000000000000000444 -0.999995 L -0.866012 -0.500015 L -0.866012 0.500015 Z M 0 0.999995 " transform="matrix(0.000000000000006932,113.207547,-113.207547,0.000000000000006932,300,300)"/>
<path style="fill-rule:nonzero;fill:rgb(54.117647%,88.627451%,20.392157%);fill-opacity:1;stroke-width:0.053;stroke-linecap:butt;stroke-linejoin:miter;stroke:rgb(18.039216%,20.392157%,21.176471%);stroke-opacity:1;stroke-miterlimit:4;" d="M 0.00000713514 0.999995 L 0.866019 0.500015 L 0.866019 -0.500015 L 0.00000713514 -0.999995 L -0.866039 -0.500015 L -0.866039 0.500015 Z M 0.00000713514 0.999995 " transform="matrix(0.000000000000006932,113.207547,-113.207547,0.000000000000006932,300,496.081223)"/>
<path style="fill-rule:nonzero;fill:rgb(98.823529%,68.627451%,24.313725%);fill-opacity:1;stroke-width:0.053;stroke-linecap:butt;stroke-linejoin:miter;stroke:rgb(18.039216%,20.392157%,21.176471%);stroke-opacity:1;stroke-miterlimit:4;" d="M -0.00000789346 0.999995 L 0.866024 0.500015 L 0.866021 -0.500011 L -0.000000379161 -1.000008 L -0.866019 -0.499981 L -0.866029 0.499998 Z M -0.00000789346 0.999995 " transform="matrix(-98.040612,56.603774,-56.603774,-98.040612,130.188679,398.040612)"/>
<path style="fill-rule:nonzero;fill:rgb(93.72549%,16.078431%,16.078431%);fill-opacity:1;stroke-width:0.053;stroke-linecap:butt;stroke-linejoin:miter;stroke:rgb(18.039216%,20.392157%,21.176471%);stroke-opacity:1;stroke-miterlimit:4;" d="M -0.000000379161 1.000008 L 0.866021 0.500011 L 0.866024 -0.500015 L -0.00000789346 -0.999995 L -0.866029 -0.499998 L -0.866019 0.499981 Z M -0.000000379161 1.000008 " transform="matrix(-98.040612,-56.603774,56.603774,-98.040612,130.188679,201.959388)"/>
<path style="fill-rule:nonzero;fill:rgb(53.333333%,54.117647%,52.156863%);fill-opacity:1;stroke-width:0.053;stroke-linecap:butt;stroke-linejoin:miter;stroke:rgb(18.039216%,20.392157%,21.176471%);stroke-opacity:1;stroke-miterlimit:4;" d="M 0.00000713514 0.999995 L 0.866019 0.500015 L 0.866019 -0.500015 L 0.00000713514 -0.999995 L -0.866039 -0.500015 L -0.866039 0.500015 Z M 0.00000713514 0.999995 " transform="matrix(-0.000000000000020796,-113.207547,113.207547,-0.000000000000020796,300,103.918777)"/>
<path style="fill-rule:nonzero;fill:rgb(67.843137%,49.803922%,65.882353%);fill-opacity:1;stroke-width:0.053;stroke-linecap:butt;stroke-linejoin:miter;stroke:rgb(18.039216%,20.392157%,21.176471%);stroke-opacity:1;stroke-miterlimit:4;" d="M -0.00000789346 0.999995 L 0.866024 0.500015 L 0.866021 -0.500011 L -0.000000379161 -1.000008 L -0.866019 -0.499981 L -0.866029 0.499998 Z M -0.00000789346 0.999995 " transform="matrix(98.040612,-56.603774,56.603774,98.040612,469.811321,201.959388)"/>
<path style="fill-rule:nonzero;fill:rgb(44.705882%,62.352941%,81.176471%);fill-opacity:1;stroke-width:0.053;stroke-linecap:butt;stroke-linejoin:miter;stroke:rgb(18.039216%,20.392157%,21.176471%);stroke-opacity:1;stroke-miterlimit:4;" d="M -0.000000379161 1.000008 L 0.866021 0.500011 L 0.866024 -0.500015 L -0.00000789346 -0.999995 L -0.866029 -0.499998 L -0.866019 0.499981 Z M -0.000000379161 1.000008 " transform="matrix(98.040612,56.603774,-56.603774,98.040612,469.811321,398.040612)"/>
</g>
</svg>
